<svg preserveAspectRatio="none" width="100%" height="100%" overflow="visible" style="display: block;" viewBox="0 0 53 52.9996" fill="none" xmlns="http://www.w3.org/2000/svg">
<g id="Group">
<path id="Vector" d="M26.4998 0C11.8635 0.00103516 0.00103516 11.8631 0 26.4998C0.00103516 41.1375 11.8681 52.9302 26.4923 52.9996H26.5269L26.5577 52.9987C29.3654 53.0026 31.6824 52.116 33.2821 50.6598C34.8833 49.2096 35.7383 47.2175 35.7363 45.2008C35.7384 44.2539 35.5382 43.3059 35.1648 42.4034C35.7948 42.0448 36.2147 41.719 36.3346 41.6328C36.7644 41.3267 37.9909 39.6903 37.131 38.3421C36.2672 36.9949 33.193 33.9242 32.3535 33.4042C31.5165 32.885 30.1178 33.3913 29.4442 34.3799C28.7686 35.3685 28.2358 35.0723 28.2358 35.0723C28.2358 35.0723 26.3191 33.5241 23.6682 28.176C21.0175 22.8249 20.9496 20.3654 20.9496 20.3654C20.9496 20.3654 21.0358 19.7601 22.2319 19.8206C23.4255 19.8848 24.6747 19.0786 24.7697 18.096C24.8658 17.1163 24.2834 12.8073 23.7346 11.3056C23.1843 9.80293 21.1403 9.78906 20.6366 9.94557C20.1304 10.1011 14.9398 11.365 14.5277 16.7993C14.1172 22.2345 15.5178 27.1695 17.5237 31.22C19.5306 35.2694 22.6093 39.3734 27.1818 42.3382C29.0336 43.5388 30.8108 43.6943 32.3051 43.4427C32.5621 44.0162 32.6899 44.6115 32.6928 45.2009C32.6899 46.3698 32.2145 47.5149 31.2368 48.4064C30.2566 49.2929 28.745 49.9517 26.5579 49.9557L26.5045 49.9566C13.5395 49.8902 3.04201 39.4486 3.04305 26.4998C3.04408 20.0175 5.66603 14.1622 9.91307 9.91276C14.1627 5.66624 20.0174 3.04408 26.4998 3.04305C32.982 3.04408 38.8369 5.66614 43.0863 9.91276C47.3339 14.1623 49.955 20.0165 49.957 26.4998C49.9559 30.5027 48.9564 34.2599 47.1933 37.5536C46.2067 39.4 44.9784 41.0969 43.5519 42.6064C42.9754 43.2177 43.0032 44.1805 43.6134 44.7571C44.2235 45.3345 45.1874 45.3078 45.7649 44.6966C47.3735 42.9927 48.7603 41.076 49.8757 38.9888C51.8687 35.2693 53 31.0119 53 26.4998C52.9979 11.8631 41.136 0.00103516 26.4998 0Z" fill="var(--fill-0, black)"/>
</g>
</svg>
